<svg width="29" height="24" viewBox="0 0 29 24" fill="none" xmlns="http://www.w3.org/2000/svg">
<g id="lucide/shopping-cart">
<path id="Vector" d="M2.47705 2.05005H4.89372L8.10788 14.47C8.22579 14.9249 8.53161 15.3315 8.9727 15.6199C9.41379 15.9083 9.96256 16.0604 10.5246 16.05H22.3421C22.8921 16.0493 23.4253 15.8933 23.8537 15.6079C24.2821 15.3224 24.5801 14.9246 24.6983 14.48L26.6921 7.05005H6.18663M10.875 21C10.875 21.5523 10.334 22 9.66663 22C8.99929 22 8.4583 21.5523 8.4583 21C8.4583 20.4478 8.99929 20 9.66663 20C10.334 20 10.875 20.4478 10.875 21ZM24.1666 21C24.1666 21.5523 23.6256 22 22.9583 22C22.291 22 21.75 21.5523 21.75 21C21.75 20.4478 22.291 20 22.9583 20C23.6256 20 24.1666 20.4478 24.1666 21Z" stroke="white" stroke-width="2" stroke-linecap="round" stroke-linejoin="round"/>
</g>
</svg>
